<svg version="1.1" xmlns="http://www.w3.org/2000/svg" viewBox="-972.6772851589162 -619.8444295179596 1644.2561210396466 1056.2383228552271" fill="none" stroke="black" stroke-width="0.6%" vector-effect="non-scaling-stroke">
    <path d="M -903.33267 -240.64568 L -903.33267 -250.131 L -601.56406 -166.98389 A 200 63.33618 180 0 0 -462.81922 -151.36546 L 396.34867 -169.58693 A 200 63.33618 180 0 0 574.38541 -222.9622 L 668.24125 -449.38154 A 200 63.33618 180 0 0 670.57883 -459.03677 L 670.57883 -449.55145" />
    <path d="M -601.56406 -157.49857 L -601.56406 -166.98389" />
    <path d="M -903.33267 -240.64568 L -601.56406 -157.49857 A 200 63.33618 180 0 0 -462.81922 -141.88014 L 396.34867 -160.1016 L 396.34867 -169.58693" />
    <path d="M -971.67728 -288.32362 A 200 63.33618 180 0 0 -903.33267 -240.64568" />
    <path d="M -937.54607 -333.1973 A 200 63.33618 180 0 0 -971.67728 -297.80894 A 200 63.33618 180 0 0 -903.33267 -250.131" />
    <path d="M -462.81922 -141.88014 L -462.81922 -151.36546" />
    <path d="M 574.38541 -213.47688 A 200 63.33618 0 0 1 396.34867 -160.1016" />
    <path d="M 574.38541 -213.47688 L 668.24125 -439.89622 L 668.24125 -449.38154" />
    <path d="M 668.24125 -439.89622 A 200 63.33618 180 0 0 670.57883 -449.55145" />
    <path d="M 670.57883 -459.03677 A 200 63.33618 180 0 0 571.69102 -513.68265 L 41.03229 -610.15413 A 200 63.33618 180 0 0 -202.07127 -600.11245 L -210.63507 -597.201 L -922.23245 -339.50169 L -937.54607 -333.1973" />
    <path d="M 574.38541 -213.47688 L 574.38541 -222.9622" />
    <path d="M -45.96344 435.39389 L -45.96344 -150.72093" />
    <path d="M -40.15254 426.07339 L -40.15254 -150.84417" />
    <path d="M -45.96344 435.39389 L -40.15254 426.07339" />
    <path d="M -75.39529 433.55369 L -75.39529 -150.09673" />
    <path d="M -75.39529 433.55369 L -45.96344 435.39389" />
    <path d="M -246.66346 274.51828 L -246.66346 -146.46443" />
    <path d="M -224.08019 280.77219 L -224.08019 -146.94338" />
    <path d="M -246.66346 274.51828 L -224.08019 280.77219 L -204.33188 273.6205 L -204.33188 -147.36221" />
    <path d="M 265.23797 302.97995 L 265.23797 -157.32097" />
    <path d="M 274.9215 311.97184 L 274.9215 -157.52634" />
    <path d="M 265.23797 302.97995 L 274.9215 311.97184 L 303.31568 308.90525 L 303.31568 -158.12854" />
    <path d="M -971.67728 -297.80894 L -971.67728 -288.32362" />
</svg>